<svg xmlns="http://www.w3.org/2000/svg" version="1.1" xmlns:xlink="http://www.w3.org/1999/xlink" xmlns:svgjs="http://svgjs.dev/svgjs" viewBox="0 0 800 800"><defs><filter id="uuunion-blur" x="-100%" y="-100%" width="400%" height="400%" color-interpolation-filters="sRGB">
        <feGaussianBlur in="SourceGraphic" stdDeviation="4 4" result="blur"></feGaussianBlur>
        <feDropShadow stdDeviation="41.84615384615385" in="blur" dx="34" dy="34" flood-color="hsl(230, 100%, 9%)" flood-opacity="1" x="0%" y="0%" width="100%" height="100%"></feDropShadow>
      </filter><filter id="uuunion-blur2" x="-100%" y="-100%" width="400%" height="400%" color-interpolation-filters="sRGB">
        <feGaussianBlur in="SourceGraphic" stdDeviation="4 4" result="blur"></feGaussianBlur>
        <feDropShadow stdDeviation="41.84615384615385" in="blur" dx="-34" dy="-34" flood-color="hsl(230, 100%, 9%)" flood-opacity="1" x="0%" y="0%" width="100%" height="100%"></feDropShadow>
      </filter><linearGradient gradientTransform="rotate(59, 0.5, 0.5)" x1="50%" y1="0%" x2="50%" y2="100%" id="uuunion-grad"><stop stop-color="hsl(230, 100%, 47%)" offset="10%"></stop><stop stop-color="hsl(230, 100%, 9%)" offset="90%"></stop></linearGradient><linearGradient gradientTransform="rotate(0, 0.5, 0.5)" x1="50%" y1="0%" x2="50%" y2="100%" id="uuunion-grad2"><stop stop-color="hsl(230, 100%, 47%)" offset="25%"></stop><stop stop-color="hsl(230, 100%, 9%)" offset="100%"></stop></linearGradient><linearGradient gradientTransform="rotate(61, 0.5, 0.5)" x1="50%" y1="0%" x2="50%" y2="100%" id="uuunion-grad3"><stop stop-color="hsl(230, 100%, 47%)" offset="0%"></stop><stop stop-color="hsl(230, 100%, 9%)" offset="75%"></stop></linearGradient></defs><path d="M-74.65 -82.72Q-60.84 -81.04 -47.03 -79.18 -33.21 -77.46 -19.4 -76.17 -5.59 -75.54 8.21 -75.67 22.03 -76.54 35.84 -78 49.65 -79.8 63.46 -81.64 77.27 -83.19 91.09 -84.2 104.9 -84.49 118.71 -84.01 132.52 -82.84 146.33 -81.19 160.15 -79.33 173.96 -77.58 187.77 -76.25 201.58 -75.56 215.39 -75.63 229.21 -76.44 243.02 -77.87 256.83 -79.65 270.64 -81.5 284.46 -83.09 298.27 -84.15 312.08 -84.49 325.89 -84.07 339.7 -82.95 353.52 -81.33 367.33 -79.48 381.14 -77.71 394.95 -76.34 408.76 -75.59 422.58 -75.6 436.39 -76.35 450.2 -77.74 464.01 -79.5 477.83 -81.36 491.64 -82.98 505.45 -84.08 519.26 -84.49 533.07 -84.13 546.89 -83.07 560.7 -81.47 574.51 -79.62 588.32 -77.84 602.13 -76.43 615.95 -75.62 629.76 -75.57 643.57 -76.27 657.38 -77.61 671.19 -79.36 685.01 -81.21 698.82 -82.86 712.63 -84.02 726.44 -84.49 740.26 -84.19 754.07 -83.17 767.88 -81.61 781.69 -79.77 795.5 -77.97 809.32 -76.52 814.51 -60.72 824.38 -44.93 838.22 -29.13 855.03 -13.33 873.63 2.45 892.68 18.25 910.82 34.05 926.77 49.84 939.38 65.64 947.75 81.44 951.29 97.23 949.75 113.03 943.23 128.82 932.21 144.62 917.46 160.42 900.03 176.21 881.18 192.01 862.24 207.81 844.57 223.6 829.43 239.4 817.89 255.2 810.78 270.99 808.61 286.79 811.53 302.59 819.33 318.38 831.46 334.18 847.05 349.98 864.99 365.77 884 381.57 902.72 397.36 919.83 413.16 934.09 428.96 944.49 444.75 950.3 460.55 951.09 476.35 946.81 492.14 937.77 507.94 924.6 523.74 908.25 539.53 889.89 555.33 870.82 571.13 852.41 586.92 835.96 602.72 822.66 618.51 813.44 634.31 808.97 650.11 809.57 665.9 815.18 681.7 825.42 697.5 839.56 713.29 856.57 729.09 875.26 744.89 894.28 760.68 912.29 776.48 927.99 792.28 940.27 808.07 948.25 823.87 951.36 839.67 949.39 855.46 942.46 871.26 931.08 887.05 916.05 902.85 898.46 918.65 879.54 934.44 864.55 911.66 849.56 883.46 834.57 854.67 819.57 830.21 804.58 814.26 789.59 809.57 774.6 816.93 759.6 835.08 744.61 860.91 729.62 890.01 714.63 917.4 699.63 938.38 684.64 949.38 669.65 948.5 654.66 935.9 639.66 913.73 624.67 885.79 609.68 856.86 594.69 831.89 579.7 815.15 564.7 809.5 549.71 815.92 534.72 833.3 519.73 858.67 504.73 887.69 489.74 915.39 474.75 937.04 459.76 948.93 444.76 949.02 429.77 937.29 414.78 915.77 399.79 888.12 384.79 859.08 369.8 833.63 354.81 816.1 339.82 809.51 324.82 814.98 309.83 831.57 294.84 856.45 279.85 885.36 264.85 913.35 249.86 935.63 234.87 948.4 219.88 949.45 204.88 938.63 189.89 917.76 174.9 890.44 159.91 861.33 144.92 835.41 129.92 817.12 114.93 809.59 99.94 814.11 84.95 829.9 69.95 854.26 54.96 883.03 39.97 911.27 24.98 934.17 9.98 947.79 -5 949.82 -19.99 939.89 -34.98 919.72 -49.98 892.75 -64.97 863.6 -79.96 837.25 -81.39 822.87 -82.72 808.5 -83.86 794.13 -84.72 779.75 -85.24 765.38 -85.39 751 -85.16 736.63 -84.55 722.25 -83.62 707.88 -82.44 693.5 -81.08 679.13 -79.64 664.75 -78.22 650.38 -76.94 636 -75.87 621.63 -75.09 607.25 -74.67 592.88 -74.62 578.5 -74.96 564.13 -75.66 549.75 -76.66 535.38 -77.91 521.01 -79.3 506.63 -80.74 492.26 -82.13 477.88 -83.37 463.51 -84.36 449.13 -85.05 434.76 -85.37 420.38 -85.31 406.01 -84.87 391.63 -84.09 377.26 -83.01 362.88 -81.71 348.51 -80.3 334.13 -78.86 319.76 -77.5 305.38 -76.32 291.01 -75.41 276.63 -74.82 262.26 -74.6 247.89 -74.76 233.51 -75.3 219.14 -76.17 204.76 -77.32 190.39 -78.65 176.01 -80.08 161.64 -81.51 147.26 -82.83 132.89 -83.94 118.51 -84.78 104.14 -85.27 89.76 -85.39 75.39 -85.12 61.01 -84.49 46.64 -83.53 32.26 -82.33 17.89 -80.95 3.51 -79.51 -10.85 -78.11 -25.22 -76.84 -39.6 -75.79 -53.97 -75.04 -68.35 -74.65 -82.72" fill="url(#uuunion-grad)"></path><path d="M-74.65 -82.72Q-75.04 -68.35 -75.79 -53.97 -76.84 -39.6 -78.11 -25.22 -79.51 -10.85 -80.95 3.51 -82.33 17.89 -83.53 32.26 -84.49 46.64 -85.12 61.01 -85.39 75.39 -85.27 89.76 -84.78 104.14 -83.94 118.51 -82.83 132.89 -81.51 147.26 -80.08 161.64 -78.65 176.01 -77.32 190.39 -76.17 204.76 -75.3 219.14 -74.76 233.51 -74.6 247.89 -74.82 262.26 -75.41 276.63 -76.32 291.01 -77.5 305.38 -78.86 319.76 -80.3 334.13 -81.71 348.51 -83.01 362.88 -84.09 377.26 -73.48 386.31 -62.87 396.41 -52.27 406.78 -41.66 416.63 -31.06 425.21 -20.45 431.86 -0.57 437.1 2.86 437.44 15.92 427.87 28.8 414.35 41.47 397.85 53.93 379.64 66.15 361.16 78.15 343.87 89.9 329.04 101.43 317.61 112.74 310.13 123.85 306.63 134.78 306.68 145.55 309.46 156.21 313.83 166.77 318.5 177.29 322.16 187.8 323.69 198.35 322.21 208.98 317.26 219.74 308.77 230.67 297.12 241.81 283.02 253.2 267.49 264.89 251.64 276.91 236.63 289.28 223.46 302.03 212.89 315.19 205.35 328.76 200.89 342.75 199.19 357.16 199.64 371.98 201.36 387.2 203.38 402.79 204.71 418.73 204.48 434.97 202.03 451.48 197.01 468.2 189.36 485.08 179.34 502.06 167.51 519.08 154.58 536.07 141.39 552.96 128.77 569.68 117.45 586.17 107.96 602.35 100.62 618.15 95.45 633.53 92.22 648.4 90.49 662.73 89.65 676.46 89 689.56 87.89 701.98 85.73 713.71 82.09 724.74 76.73 735.05 69.66 744.65 61.07 753.57 51.33 761.81 40.93 769.43 30.39 776.46 20.25 782.96 10.94 789 2.77 794.65 -4.11 800 -9.73 780.01 -26.06 761.96 -42.39 747.6 -58.72 738.31 -75.04 735 -91.37 737.98 -107.7 746.94 -132.2 732.71 -140.31 718.52 -140.19 704.32 -140.05 690.13 -139.9 675.94 -139.76 661.75 -139.66 647.55 -139.62 633.36 -139.64 619.17 -139.73 604.98 -139.85 590.78 -140 576.59 -140.15 562.4 -140.28 548.21 -140.35 534.01 -140.37 519.82 -140.32 505.63 -140.22 491.44 -140.08 477.24 -139.92 463.05 -139.78 448.86 -139.67 434.67 -139.62 420.47 -139.63 406.28 -139.71 392.09 -139.83 377.89 -139.98 363.7 -140.13 349.51 -140.26 335.32 -140.34 321.12 -140.37 306.93 -140.33 292.74 -140.24 278.55 -140.1 264.35 -139.95 250.16 -139.8 235.97 -139.69 221.78 -139.63 207.58 -139.63 193.39 -139.69 179.2 -139.8 165.01 -139.95 150.81 -140.1 136.62 -140.24 122.43 -140.33 108.24 -140.37 94.04 -140.34 79.85 -140.26 65.66 -140.13 51.47 -139.98 37.27 -139.83 23.08 -139.71 8.89 -139.63 -5.29 -139.62 -19.49 -139.68 -33.68 -139.78 -47.87 -139.92 -62.06 -140.08 -76.26 -140.22 -90.45 -140.32 -104.64 -140.37 -118.84 -140.35 -126.78 -127.98 -109.27 -112.42 -100.38 -105.42 -91.67 -98.18 -83.11 -90.64 -74.65 -82.72" fill="url(#uuunion-grad2)" filter="url(#uuunion-blur)"></path><path d="M849.24 363.49Q859.85 367.25 870.45 373.51 881.06 381.81 891.67 391.5 902.27 401.84 912.88 412.04 923.48 421.31 934.09 428.96 944.49 444.75 950.3 460.55 951.09 476.35 946.81 492.14 937.77 507.94 924.6 523.74 908.25 539.53 889.89 555.33 870.82 571.13 852.41 586.92 835.96 602.72 822.66 618.51 813.44 634.31 808.97 650.11 809.57 665.9 815.18 681.7 825.42 697.5 839.56 713.29 856.57 729.09 875.26 744.89 894.28 760.68 912.29 776.48 927.99 792.28 940.27 808.07 948.25 823.87 951.36 839.67 949.39 855.46 942.46 871.26 931.08 887.05 916.05 902.85 898.46 918.65 879.54 934.44 865.78 913.8 852.03 888.28 838.27 861.56 824.51 837.5 810.75 819.58 796.99 810.38 783.23 811.25 769.47 822.04 755.72 841.2 741.96 865.97 728.2 892.76 714.44 917.71 700.68 937.21 686.92 948.45 673.16 949.8 659.4 941.07 645.65 923.51 631.89 899.67 618.13 872.99 604.37 847.32 590.61 826.37 576.85 813.17 563.09 809.61 549.34 816.23 535.58 832.05 521.82 854.8 508.06 881.19 494.3 907.4 480.54 929.66 466.78 944.74 453.03 950.47 439.27 946.02 425.51 932.04 411.75 910.53 397.99 884.62 384.23 858.04 370.47 834.62 356.71 817.77 342.96 809.9 329.2 812.15 315.44 824.21 301.68 844.32 287.92 869.59 274.16 896.35 260.4 920.76 246.65 939.28 232.89 949.23 219.13 949.19 205.37 939.15 191.61 920.56 177.85 896.12 164.09 869.35 150.33 844.11 136.58 824.06 122.82 812.09 109.06 809.92 95.3 817.88 81.54 834.81 67.78 858.27 54.02 884.86 40.27 910.75 26.51 932.2 5.95 942.94 -0.68 929.09 -0.53 918.41 -0.4 907.72 -0.28 897.03 -0.19 886.34 0.16 870.32 0.98 865 14.49 854.46 27.99 836.78 41.43 813.41 54.77 786.44 68 758.4 81.07 731.88 93.95 709.27 106.62 692.46 119.05 682.62 131.24 680.08 143.16 684.3 154.82 693.93 166.21 707.03 177.34 721.23 188.22 734.11 198.87 743.4 209.31 747.32 219.57 744.73 229.68 735.3 239.69 719.51 249.63 698.59 259.55 674.35 269.5 648.98 279.53 624.77 289.68 603.83 300.01 587.85 310.56 577.91 321.39 574.35 332.54 576.75 344.05 583.99 355.95 594.38 368.29 605.9 381.09 616.43 394.36 623.99 408.11 626.99 422.37 624.42 437.11 615.92 452.34 601.88 468.03 583.31 484.16 561.74 500.68 539.06 517.57 517.23 534.78 498.09 552.23 483.1 569.89 473.24 587.67 468.83 605.5 469.56 623.32 474.5 641.05 482.24 658.6 491.07 675.9 499.19 692.88 504.9 709.45 506.83 725.55 504.08 741.1 496.35 756.06 483.9 770.35 467.57 783.94 448.63 796.79 428.64 808.87 409.25 820.16 392.02 830.64 378.18 844.79 366.03 849.24 363.49" fill="url(#uuunion-grad3)" filter="url(#uuunion-blur2)"></path></svg>