<svg version="1.1" id="Layer_1" xmlns="http://www.w3.org/2000/svg" xmlns:xlink="http://www.w3.org/1999/xlink" x="0px" y="0px"
	 width="100%" viewBox="0 0 459 500" enable-background="new 0 0 459 500" xml:space="preserve">
<path fill="#000000" opacity="0.000000" stroke="none" 
	d="
M212.000000,501.000000 
	C141.682541,501.000000 71.365074,501.000000 1.023808,501.000000 
	C1.023808,334.386810 1.023808,167.773636 1.023808,1.080223 
	C153.911957,1.080223 306.823944,1.080223 459.867981,1.080223 
	C459.867981,167.666611 459.867981,334.333282 459.872498,501.000000 
	C378.895355,501.000000 297.913696,501.000000 216.146851,500.757141 
	C222.798477,494.109100 230.376648,487.859741 237.643173,481.266846 
	C253.394638,466.975739 267.675110,451.431183 276.999207,432.017365 
	C281.884705,421.845245 284.777435,411.214813 283.561523,399.695160 
	C281.911041,384.058319 274.504730,371.360046 263.976685,360.200134 
	C248.449326,343.740875 229.425766,332.017914 209.801651,321.355591 
	C184.962204,307.859680 159.591568,295.342072 134.739273,281.868958 
	C121.289246,274.577332 108.249466,266.456909 97.643272,255.075256 
	C87.644005,244.344940 82.502670,231.325653 91.765671,215.285034 
	C91.890350,214.773895 91.842682,214.501892 91.795006,214.229874 
	C91.470192,214.425766 91.145378,214.621658 90.501511,214.921478 
	C85.268394,220.657272 79.800995,225.903534 75.552940,231.999527 
	C66.072151,245.604492 66.186165,259.252014 75.628517,272.882965 
	C78.821609,277.492493 82.776802,281.694458 86.913017,285.508728 
	C101.979019,299.402100 120.006126,308.906555 137.555298,319.112823 
	C158.258453,331.153381 179.165451,342.874603 199.476593,355.547638 
	C214.197693,364.732758 227.665665,375.742523 238.125381,389.888672 
	C249.804214,405.683563 255.432724,423.263550 249.556564,442.466248 
	C246.348755,452.949097 241.201782,463.173828 235.181961,472.371277 
	C228.491699,482.592987 219.813004,491.513184 212.000000,501.000000 
M134.261276,269.643433 
	C134.821411,269.800934 135.381561,269.958466 136.354141,270.626953 
	C137.523117,271.237427 138.692078,271.847900 140.423203,272.941254 
	C141.526947,273.320160 142.630692,273.699097 144.088287,274.199463 
	C144.088287,266.955261 144.088287,260.481049 144.261139,253.081451 
	C144.200012,230.389755 144.138885,207.698074 144.249222,184.080887 
	C144.267960,137.483246 144.303925,90.885582 144.284119,44.287952 
	C144.281586,38.319332 146.071167,30.979755 143.281982,26.743143 
	C140.082016,21.882589 132.703415,19.773043 126.669205,16.059784 
	C124.766121,15.047451 122.863037,14.035118 120.533539,12.542334 
	C119.021660,11.735328 117.509789,10.928322 115.407158,9.844842 
	C114.616959,9.523571 113.826752,9.202300 112.777519,8.303273 
	C111.883926,7.780202 110.990341,7.257132 109.705971,6.272711 
	C108.808823,5.835097 107.911674,5.397482 106.576172,4.464870 
	C105.731537,4.271461 104.886909,4.078051 103.697594,3.282265 
	C101.633064,2.140435 100.789024,2.664207 100.821960,5.100015 
	C100.952202,14.733287 100.975868,24.368000 100.886719,34.928787 
	C100.936714,56.953098 100.986702,78.977409 100.883667,101.928284 
	C100.860359,144.924393 101.252319,187.927582 100.517975,230.911545 
	C100.337311,241.486572 104.359238,248.241653 111.914482,254.128616 
	C113.221336,255.146896 114.608192,256.062531 116.310471,257.591156 
	C118.873924,259.365295 121.437386,261.139465 124.512520,263.327545 
	C125.644257,263.989319 126.776001,264.651093 128.269775,265.812317 
	C129.159943,266.277374 130.050095,266.742432 131.277313,267.713898 
	C132.171906,268.187439 133.066513,268.661011 134.261276,269.643433 
M233.314651,322.737793 
	C235.496017,323.997833 237.677368,325.257843 240.285614,326.973724 
	C242.190689,328.293152 244.095764,329.612579 246.483383,331.379089 
	C248.273163,332.614014 250.062958,333.848938 252.224258,335.648315 
	C254.879898,337.738770 257.535522,339.829224 260.954559,342.520599 
	C260.954559,337.194580 260.954559,333.096771 261.106537,328.072113 
	C261.055634,305.048065 261.004730,282.024048 261.105682,258.072937 
	C261.122742,218.302643 261.173889,178.532227 261.045135,138.762405 
	C261.039368,136.978973 259.865570,134.507889 258.436371,133.550323 
	C254.177704,130.697021 249.520248,128.438995 244.539719,125.439804 
	C241.692291,123.995567 238.844864,122.551323 235.398636,120.800941 
	C233.596817,119.595612 231.795013,118.390289 229.468201,116.746559 
	C227.311249,115.548355 225.154312,114.350143 222.283905,112.892151 
	C221.034592,112.293510 219.785278,111.694862 217.888000,110.785736 
	C217.888000,120.612694 217.888000,129.800629 217.710922,139.914337 
	C217.755493,159.604034 217.800049,179.293747 217.660629,199.852219 
	C217.588501,236.349991 217.487076,272.847778 217.536514,309.345398 
	C217.538818,311.052307 218.409714,313.446991 219.695709,314.336700 
	C223.904266,317.248322 228.491989,319.611908 233.314651,322.737793 
M176.377625,291.888733 
	C178.849884,293.077606 181.322159,294.266449 184.300217,295.880371 
	C186.867249,297.203522 189.434280,298.526703 192.612106,300.205841 
	C195.359955,301.493561 198.107819,302.781250 201.187988,304.489471 
	C201.700226,304.320923 202.212463,304.152374 202.849579,303.117767 
	C202.803894,301.079346 202.758209,299.040924 202.854065,296.074738 
	C202.808731,268.386627 202.763397,240.698517 202.861649,212.081268 
	C202.878204,169.851791 202.926331,127.622231 202.801865,85.393173 
	C202.796616,83.608315 201.659424,81.116364 200.240067,80.177147 
	C195.689423,77.165909 190.758041,74.730034 185.475296,71.588348 
	C182.660538,70.032234 179.845779,68.476120 176.604889,66.405396 
	C174.068161,64.999664 171.531433,63.593929 168.336411,61.928852 
	C166.012985,60.558216 163.689575,59.187580 160.956345,57.370541 
	C160.377213,57.591930 159.798080,57.813316 159.116119,58.959019 
	C159.168320,63.972878 159.220520,68.986740 159.137924,74.929428 
	C159.182968,100.286598 159.228027,125.643761 159.136887,151.929550 
	C159.117264,189.998795 159.077225,228.068039 159.100357,266.137268 
	C159.103775,271.756226 157.383835,278.821381 160.098007,282.616547 
	C163.272369,287.055176 170.432861,288.643066 176.377625,291.888733 
M344.438110,380.365204 
	C331.443848,392.563202 316.579712,401.827515 300.261261,408.918854 
	C298.514465,409.677948 296.539673,411.877014 296.236542,413.672455 
	C294.385345,424.638153 290.625732,434.836548 285.111786,444.442688 
	C284.176392,446.072327 283.341309,447.759613 282.459869,449.420258 
	C282.736084,449.826904 283.012268,450.233521 283.288483,450.640167 
	C292.078644,447.790466 300.994843,445.275391 309.633240,442.022736 
	C328.614990,434.875336 345.841980,424.670746 361.678040,410.900360 
	C380.397247,395.104706 395.519928,376.475006 406.724243,353.853729 
	C417.338104,333.534729 422.763855,311.734894 425.548004,288.325317 
	C428.861359,241.857300 417.101959,199.719467 388.981079,162.429932 
	C373.059509,141.317184 353.596436,124.198921 329.535034,111.480469 
	C314.143951,103.488167 298.201294,97.036369 280.257751,93.806480 
	C259.139984,88.869164 237.710617,90.078598 215.878433,90.082802 
	C216.134964,91.703644 215.936783,93.440849 216.531128,93.777061 
	C243.581482,109.078819 268.714966,128.285446 300.482452,135.539307 
	C316.298584,142.459488 330.829712,151.423187 343.468018,163.227341 
	C375.644104,193.279785 391.428345,230.603790 391.843170,274.418549 
	C391.983337,289.224823 388.832306,303.674347 384.238800,318.399536 
	C380.439850,327.057922 377.086823,335.947723 372.740509,344.321991 
	C365.709686,357.868622 355.691986,369.258850 344.438110,380.365204 
M109.023773,311.515686 
	C89.948776,299.213440 72.235313,285.658936 64.611160,261.983856 
	C58.119476,281.486969 59.409405,299.001434 70.984154,315.238770 
	C78.934540,326.391724 88.924873,335.526459 100.411079,342.702057 
	C119.453728,354.598267 138.950882,365.766449 158.245163,377.260468 
	C174.993790,387.237976 191.630341,397.372833 205.911316,410.859406 
	C219.069656,423.285767 228.830856,437.632904 231.575760,455.967651 
	C232.001801,458.813385 232.253448,461.685211 232.707062,465.589142 
	C248.316849,432.705231 242.769211,403.026825 217.529343,378.882751 
	C205.017700,366.914337 190.643707,357.612000 175.748016,349.082520 
	C153.808594,336.519623 131.680298,324.286621 109.023773,311.515686 
M209.620911,442.996735 
	C204.871948,436.419952 200.385345,429.625519 195.217697,423.396088 
	C193.621658,421.472046 190.187424,420.193695 187.565872,420.143890 
	C171.929749,419.846802 156.285095,420.004486 140.643356,419.983337 
	C138.891144,419.980988 137.139160,419.813995 135.027649,419.704803 
	C135.027649,416.160004 135.183685,413.170135 134.997162,410.201782 
	C134.518112,402.578003 129.044617,397.237457 121.478027,396.883911 
	C119.485298,396.790771 117.484367,396.808868 115.488815,396.851685 
	C106.377960,397.047150 100.957146,402.388184 100.836861,411.493927 
	C100.724785,419.978973 100.791595,428.466614 100.806007,436.953064 
	C100.827515,449.624847 105.617836,454.534088 118.206772,454.552307 
	C147.992630,454.595459 177.778610,454.569855 207.564514,454.548401 
	C209.302536,454.547150 211.040390,454.335754 213.512955,454.174164 
	C212.152451,450.200562 211.038528,446.947113 209.620911,442.996735 
z"/>
<path fill="#5170FD" opacity="1.000000" stroke="none" 
	d="
M91.593307,215.524170 
	C82.502670,231.325653 87.644005,244.344940 97.643272,255.075256 
	C108.249466,266.456909 121.289246,274.577332 134.739273,281.868958 
	C159.591568,295.342072 184.962204,307.859680 209.801651,321.355591 
	C229.425766,332.017914 248.449326,343.740875 263.976685,360.200134 
	C274.504730,371.360046 281.911041,384.058319 283.561523,399.695160 
	C284.777435,411.214813 281.884705,421.845245 276.999207,432.017365 
	C267.675110,451.431183 253.394638,466.975739 237.643173,481.266846 
	C230.376648,487.859741 222.798477,494.109100 215.680817,500.757141 
	C214.933334,501.000000 213.866653,501.000000 212.399994,501.000000 
	C219.813004,491.513184 228.491699,482.592987 235.181961,472.371277 
	C241.201782,463.173828 246.348755,452.949097 249.556564,442.466248 
	C255.432724,423.263550 249.804214,405.683563 238.125381,389.888672 
	C227.665665,375.742523 214.197693,364.732758 199.476593,355.547638 
	C179.165451,342.874603 158.258453,331.153381 137.555298,319.112823 
	C120.006126,308.906555 101.979019,299.402100 86.913017,285.508728 
	C82.776802,281.694458 78.821609,277.492493 75.628517,272.882965 
	C66.186165,259.252014 66.072151,245.604492 75.552940,231.999527 
	C79.800995,225.903534 85.268394,220.657272 90.691055,215.102112 
	C91.330879,215.293945 91.462090,215.409058 91.593307,215.524170 
z"/>
<path fill="#5170FD" opacity="1.000000" stroke="none" 
	d="
M109.328110,311.714386 
	C131.680298,324.286621 153.808594,336.519623 175.748016,349.082520 
	C190.643707,357.612000 205.017700,366.914337 217.529343,378.882751 
	C242.769211,403.026825 248.316849,432.705231 232.707062,465.589142 
	C232.253448,461.685211 232.001801,458.813385 231.575760,455.967651 
	C228.830856,437.632904 219.069656,423.285767 205.911316,410.859406 
	C191.630341,397.372833 174.993790,387.237976 158.245163,377.260468 
	C138.950882,365.766449 119.453728,354.598267 100.411079,342.702057 
	C88.924873,335.526459 78.934540,326.391724 70.984154,315.238770 
	C59.409405,299.001434 58.119476,281.486969 64.611160,261.983856 
	C72.235313,285.658936 89.948776,299.213440 109.328110,311.714386 
z"/>
<path fill="#045C91" opacity="1.000000" stroke="none" 
	d="
M280.998993,94.102753 
	C298.201294,97.036369 314.143951,103.488167 329.797882,112.102165 
	C330.831390,114.726730 331.401489,116.836433 332.402802,118.716484 
	C347.781830,147.592026 363.262054,176.413712 378.625122,205.297729 
	C391.263641,229.059387 403.687469,252.935776 416.429718,276.641296 
	C418.815674,281.080048 422.256897,284.951599 425.211121,289.084900 
	C422.763855,311.734894 417.338104,333.534729 406.302979,353.776733 
	C400.701294,344.027069 395.623383,334.297089 390.271210,324.720367 
	C388.861084,322.197266 386.603394,320.147858 384.734924,317.880920 
	C388.832306,303.674347 391.983337,289.224823 391.843170,274.418549 
	C391.428345,230.603790 375.644104,193.279785 343.468018,163.227341 
	C330.829712,151.423187 316.298584,142.459488 300.208588,134.918243 
	C297.250946,128.640396 294.553467,122.990082 291.886688,117.325310 
	C288.245239,109.590218 284.627106,101.844124 280.998993,94.102753 
z"/>
<path fill="#045E8D" opacity="1.000000" stroke="none" 
	d="
M425.379578,288.705109 
	C422.256897,284.951599 418.815674,281.080048 416.429718,276.641296 
	C403.687469,252.935776 391.263641,229.059387 378.625122,205.297729 
	C363.262054,176.413712 347.781830,147.592026 332.402802,118.716484 
	C331.401489,116.836433 330.831390,114.726730 330.034790,112.349045 
	C353.596436,124.198921 373.059509,141.317184 388.981079,162.429932 
	C417.101959,199.719467 428.861359,241.857300 425.379578,288.705109 
z"/>
<path fill="#0049AB" opacity="1.000000" stroke="none" 
	d="
M209.772766,443.345215 
	C211.038528,446.947113 212.152451,450.200562 213.512955,454.174164 
	C211.040390,454.335754 209.302536,454.547150 207.564514,454.548401 
	C177.778610,454.569855 147.992630,454.595459 118.206772,454.552307 
	C105.617836,454.534088 100.827515,449.624847 100.806007,436.953064 
	C100.791595,428.466614 100.724785,419.978973 100.836861,411.493927 
	C100.957146,402.388184 106.377960,397.047150 115.488815,396.851685 
	C117.484367,396.808868 119.485298,396.790771 121.478027,396.883911 
	C129.044617,397.237457 134.518112,402.578003 134.997162,410.201782 
	C135.183685,413.170135 135.027649,416.160004 135.027649,419.704803 
	C137.139160,419.813995 138.891144,419.980988 140.643356,419.983337 
	C156.285095,420.004486 171.929749,419.846802 187.565872,420.143890 
	C190.187424,420.193695 193.621658,421.472046 195.217697,423.396088 
	C200.385345,429.625519 204.871948,436.419952 209.772766,443.345215 
z"/>
<path fill="#035897" opacity="1.000000" stroke="none" 
	d="
M384.486877,318.140228 
	C386.603394,320.147858 388.861084,322.197266 390.271210,324.720367 
	C395.623383,334.297089 400.701294,344.027069 406.054169,354.032654 
	C395.519928,376.475006 380.397247,395.104706 361.330078,410.662048 
	C355.667114,400.309601 350.352142,390.195496 345.037170,380.081360 
	C355.691986,369.258850 365.709686,357.868622 372.740509,344.321991 
	C377.086823,335.947723 380.439850,327.057922 384.486877,318.140228 
z"/>
<path fill="#02529E" opacity="1.000000" stroke="none" 
	d="
M344.737640,380.223267 
	C350.352142,390.195496 355.667114,400.309601 361.019867,410.801300 
	C345.841980,424.670746 328.614990,434.875336 309.633240,442.022736 
	C300.994843,445.275391 292.078644,447.790466 283.288483,450.640167 
	C283.012268,450.233521 282.736084,449.826904 282.459869,449.420258 
	C283.341309,447.759613 284.176392,446.072327 285.111786,444.442688 
	C290.625732,434.836548 294.385345,424.638153 296.236542,413.672455 
	C296.539673,411.877014 298.514465,409.677948 300.261261,408.918854 
	C316.579712,401.827515 331.443848,392.563202 344.737640,380.223267 
z"/>
<path fill="#035996" opacity="1.000000" stroke="none" 
	d="
M202.718048,213.010406 
	C202.763397,240.698517 202.808731,268.386627 202.430145,296.467407 
	C201.293915,295.503662 200.124100,294.205780 199.941971,292.781616 
	C198.530563,281.744049 197.201279,270.693359 196.054977,259.625183 
	C194.224045,241.946671 192.646790,224.241760 190.791428,206.565948 
	C188.641418,186.082901 186.261185,165.624100 184.064651,145.145798 
	C181.708725,123.181763 179.392105,101.213066 177.201477,79.232140 
	C176.795929,75.162849 177.070404,71.025780 177.031021,66.919998 
	C179.845779,68.476120 182.660538,70.032234 185.729736,72.273422 
	C186.317963,76.590988 186.630035,80.225609 186.989166,83.855583 
	C188.736465,101.515938 190.437027,119.181183 192.267090,136.832993 
	C194.456146,157.947586 196.632217,179.065338 199.118103,200.145859 
	C199.633316,204.514786 201.483261,208.726334 202.718048,213.010406 
z"/>
<path fill="#0252A1" opacity="1.000000" stroke="none" 
	d="
M161.366150,57.816944 
	C163.689575,59.187580 166.012985,60.558216 168.666260,62.509636 
	C169.204147,67.234970 169.232300,71.397820 169.651703,75.520874 
	C171.365326,92.367203 173.231812,109.197906 174.977417,126.041061 
	C176.466278,140.406967 177.813904,154.787567 179.319855,169.151627 
	C181.154480,186.650620 183.120193,204.135834 184.972473,221.633026 
	C186.929474,240.119644 188.922150,258.603546 190.689438,277.108673 
	C191.410797,284.661957 191.580582,292.267883 192.001312,299.849854 
	C189.434280,298.526703 186.867249,297.203522 184.205383,295.289978 
	C184.294479,293.894531 184.707458,293.066284 184.628601,292.287842 
	C182.973511,275.947906 181.278961,259.611908 179.558197,243.278732 
	C178.063477,229.091034 176.509857,214.909531 175.013214,200.722031 
	C173.464417,186.040329 171.946228,171.355392 170.427094,156.670578 
	C168.942017,142.314758 167.506866,127.953667 165.985886,113.601669 
	C164.692078,101.393402 163.366455,89.187462 161.861496,77.004379 
	C161.726715,75.913177 160.169403,74.997688 159.272736,74.000595 
	C159.220520,68.986740 159.168320,63.972878 159.525970,58.469383 
	C160.412613,57.925484 160.889374,57.871216 161.366150,57.816944 
z"/>
<path fill="#02569B" opacity="1.000000" stroke="none" 
	d="
M192.306702,300.027832 
	C191.580582,292.267883 191.410797,284.661957 190.689438,277.108673 
	C188.922150,258.603546 186.929474,240.119644 184.972473,221.633026 
	C183.120193,204.135834 181.154480,186.650620 179.319855,169.151627 
	C177.813904,154.787567 176.466278,140.406967 174.977417,126.041061 
	C173.231812,109.197906 171.365326,92.367203 169.651703,75.520874 
	C169.232300,71.397820 169.204147,67.234970 168.995422,62.639309 
	C171.531433,63.593929 174.068161,64.999664 176.817963,66.662697 
	C177.070404,71.025780 176.795929,75.162849 177.201477,79.232140 
	C179.392105,101.213066 181.708725,123.181763 184.064651,145.145798 
	C186.261185,165.624100 188.641418,186.082901 190.791428,206.565948 
	C192.646790,224.241760 194.224045,241.946671 196.054977,259.625183 
	C197.201279,270.693359 198.530563,281.744049 199.941971,292.781616 
	C200.124100,294.205780 201.293915,295.503662 202.359375,296.931274 
	C202.758209,299.040924 202.803894,301.079346 202.475388,303.557709 
	C201.686020,304.021423 201.270844,304.045197 200.855667,304.068970 
	C198.107819,302.781250 195.359955,301.493561 192.306702,300.027832 
z"/>
<path fill="#035994" opacity="1.000000" stroke="none" 
	d="
M280.628357,93.954620 
	C284.627106,101.844124 288.245239,109.590218 291.886688,117.325310 
	C294.553467,122.990082 297.250946,128.640396 299.958588,134.674500 
	C268.714966,128.285446 243.581482,109.078819 216.531128,93.777061 
	C215.936783,93.440849 216.134964,91.703644 215.878433,90.082802 
	C237.710617,90.078598 259.139984,88.869164 280.628357,93.954620 
z"/>
<path fill="#014FA6" opacity="1.000000" stroke="none" 
	d="
M159.205322,74.465012 
	C160.169403,74.997688 161.726715,75.913177 161.861496,77.004379 
	C163.366455,89.187462 164.692078,101.393402 165.985886,113.601669 
	C167.506866,127.953667 168.942017,142.314758 170.427094,156.670578 
	C171.946228,171.355392 173.464417,186.040329 175.013214,200.722031 
	C176.509857,214.909531 178.063477,229.091034 179.558197,243.278732 
	C181.278961,259.611908 182.973511,275.947906 184.628601,292.287842 
	C184.707458,293.066284 184.294479,293.894531 183.952484,295.077454 
	C181.322159,294.266449 178.849884,293.077606 176.147354,291.187897 
	C175.613586,285.859711 175.442902,281.219116 174.982071,276.607483 
	C173.515533,261.931213 171.930161,247.266846 170.411270,232.595749 
	C168.926376,218.253159 167.515549,203.902740 165.980789,189.565552 
	C164.710495,177.698929 163.367569,165.838852 161.861633,154.000717 
	C161.722717,152.908691 160.169556,151.996582 159.273087,151.000931 
	C159.228027,125.643761 159.182968,100.286598 159.205322,74.465012 
z"/>
<path fill="#045D90" opacity="1.000000" stroke="none" 
	d="
M127.140068,16.468424 
	C132.703415,19.773043 140.082016,21.882589 143.281982,26.743143 
	C146.071167,30.979755 144.281586,38.319332 144.284119,44.287952 
	C144.303925,90.885582 144.267960,137.483246 143.822739,184.374939 
	C142.927109,183.322876 142.171387,182.005524 142.032883,180.626205 
	C140.539825,165.757996 139.154617,150.879013 137.718704,136.005005 
	C136.155441,119.811806 134.575348,103.620224 132.992172,87.428955 
	C131.780579,75.037750 130.406799,62.660263 129.375397,50.254204 
	C128.440460,39.008060 127.870781,27.731546 127.140068,16.468424 
z"/>
<path fill="#035A96" opacity="1.000000" stroke="none" 
	d="
M235.997437,121.107079 
	C238.844864,122.551323 241.692291,123.995567 244.775192,126.157303 
	C245.063461,129.697083 244.892151,132.544540 245.205917,135.337494 
	C247.055420,151.800903 249.087708,168.243820 250.925110,184.708511 
	C253.405792,206.937668 255.702560,229.187576 258.262634,251.407349 
	C258.562195,254.007065 260.028442,256.472382 260.953827,259.000000 
	C261.004730,282.024048 261.055634,305.048065 260.708557,328.370361 
	C259.209045,323.043884 257.771301,317.460754 257.069794,311.786591 
	C255.072510,295.631714 253.375061,279.439819 251.560028,263.262421 
	C249.708069,246.755981 247.851089,230.250107 246.006485,213.742844 
	C244.143478,197.070724 242.254272,180.401398 240.448822,163.723022 
	C238.911697,149.523483 237.477280,135.312820 235.997437,121.107079 
z"/>
<path fill="#035996" opacity="1.000000" stroke="none" 
	d="
M126.904633,16.264103 
	C127.870781,27.731546 128.440460,39.008060 129.375397,50.254204 
	C130.406799,62.660263 131.780579,75.037750 132.992172,87.428955 
	C134.575348,103.620224 136.155441,119.811806 137.718704,136.005005 
	C139.154617,150.879013 140.539825,165.757996 142.032883,180.626205 
	C142.171387,182.005524 142.927109,183.322876 143.737000,184.837677 
	C144.138885,207.698074 144.200012,230.389755 143.830841,253.373779 
	C142.601913,249.354340 141.505127,245.073166 141.058594,240.725220 
	C139.499695,225.546204 138.181351,210.342606 136.741791,195.151169 
	C135.177399,178.642456 133.570145,162.137787 131.999680,145.629623 
	C130.853058,133.576599 129.751724,121.519234 128.600952,109.466599 
	C127.418793,97.085274 126.190216,84.708382 125.002075,72.327614 
	C123.798096,59.781799 122.439339,47.247055 121.497879,34.681278 
	C120.958984,27.488720 121.116165,20.244011 120.959961,13.022783 
	C122.863037,14.035118 124.766121,15.047451 126.904633,16.264103 
z"/>
<path fill="#004BAC" opacity="1.000000" stroke="none" 
	d="
M159.204987,151.465240 
	C160.169556,151.996582 161.722717,152.908691 161.861633,154.000717 
	C163.367569,165.838852 164.710495,177.698929 165.980789,189.565552 
	C167.515549,203.902740 168.926376,218.253159 170.411270,232.595749 
	C171.930161,247.266846 173.515533,261.931213 174.982071,276.607483 
	C175.442902,281.219116 175.613586,285.859711 175.890579,290.977356 
	C170.432861,288.643066 163.272369,287.055176 160.098007,282.616547 
	C157.383835,278.821381 159.103775,271.756226 159.100357,266.137268 
	C159.077225,228.068039 159.117264,189.998795 159.204987,151.465240 
z"/>
<path fill="#03569A" opacity="1.000000" stroke="none" 
	d="
M235.698029,120.954010 
	C237.477280,135.312820 238.911697,149.523483 240.448822,163.723022 
	C242.254272,180.401398 244.143478,197.070724 246.006485,213.742844 
	C247.851089,230.250107 249.708069,246.755981 251.560028,263.262421 
	C253.375061,279.439819 255.072510,295.631714 257.069794,311.786591 
	C257.771301,317.460754 259.209045,323.043884 260.632568,328.833771 
	C260.954559,333.096771 260.954559,337.194580 260.954559,342.520599 
	C257.535522,339.829224 254.879898,337.738770 252.268280,335.026550 
	C252.417603,331.787048 252.768860,329.150940 252.574921,326.555511 
	C252.216614,321.760437 251.532898,316.989929 250.995132,312.207977 
	C249.140472,295.715729 247.290146,279.223022 245.438446,262.730438 
	C243.623672,246.566620 241.808594,230.402847 239.994843,214.238922 
	C238.144211,197.746216 236.181473,181.265060 234.477859,164.757172 
	C232.842865,148.914230 231.477219,133.043488 229.993210,117.184967 
	C231.795013,118.390289 233.596817,119.595612 235.698029,120.954010 
z"/>
<path fill="#004BAB" opacity="1.000000" stroke="none" 
	d="
M115.958107,257.025543 
	C114.608192,256.062531 113.221336,255.146896 111.914482,254.128616 
	C104.359238,248.241653 100.337311,241.486572 100.517975,230.911545 
	C101.252319,187.927582 100.860359,144.924393 101.287430,101.638672 
	C102.135330,102.543221 102.854630,103.708633 102.982796,104.935799 
	C105.346260,127.564888 107.707764,150.194626 109.928215,172.838089 
	C112.326897,197.299103 114.657501,221.767578 116.809853,246.251099 
	C117.120972,249.790268 116.270851,253.431534 115.958107,257.025543 
z"/>
<path fill="#014EA6" opacity="1.000000" stroke="none" 
	d="
M116.134293,257.308350 
	C116.270851,253.431534 117.120972,249.790268 116.809853,246.251099 
	C114.657501,221.767578 112.326897,197.299103 109.928215,172.838089 
	C107.707764,150.194626 105.346260,127.564888 102.982796,104.935799 
	C102.854630,103.708633 102.135330,102.543221 101.363945,101.175385 
	C100.986702,78.977409 100.936714,56.953098 101.293594,34.645180 
	C102.097939,35.060322 102.778656,35.730900 102.851364,36.461960 
	C104.608429,54.126701 106.314758,71.796555 108.000092,89.468353 
	C109.449219,104.663353 110.847786,119.863159 112.292862,135.058548 
	C113.847542,151.406479 115.447731,167.750076 116.995178,184.098694 
	C118.136459,196.156219 119.258980,208.215714 120.328064,220.279816 
	C121.587143,234.487991 122.779533,248.702087 124.000847,262.913605 
	C121.437386,261.139465 118.873924,259.365295 116.134293,257.308350 
z"/>
<path fill="#045C8D" opacity="1.000000" stroke="none" 
	d="
M202.789856,212.545837 
	C201.483261,208.726334 199.633316,204.514786 199.118103,200.145859 
	C196.632217,179.065338 194.456146,157.947586 192.267090,136.832993 
	C190.437027,119.181183 188.736465,101.515938 186.989166,83.855583 
	C186.630035,80.225609 186.317963,76.590988 185.978882,72.515320 
	C190.758041,74.730034 195.689423,77.165909 200.240067,80.177147 
	C201.659424,81.116364 202.796616,83.608315 202.801865,85.393173 
	C202.926331,127.622231 202.878204,169.851791 202.789856,212.545837 
z"/>
<path fill="#02549E" opacity="1.000000" stroke="none" 
	d="
M229.730713,116.965759 
	C231.477219,133.043488 232.842865,148.914230 234.477859,164.757172 
	C236.181473,181.265060 238.144211,197.746216 239.994843,214.238922 
	C241.808594,230.402847 243.623672,246.566620 245.438446,262.730438 
	C247.290146,279.223022 249.140472,295.715729 250.995132,312.207977 
	C251.532898,316.989929 252.216614,321.760437 252.574921,326.555511 
	C252.768860,329.150940 252.417603,331.787048 252.082520,334.744324 
	C250.062958,333.848938 248.273163,332.614014 246.324554,330.778198 
	C246.261398,328.383667 246.587158,326.567261 246.412506,324.800293 
	C245.694809,317.539093 244.818970,310.293549 244.012238,303.041046 
	C242.215286,286.886719 240.430283,270.731049 238.630417,254.577087 
	C236.757309,237.765793 234.876572,220.955338 232.991592,204.145370 
	C231.143494,187.664383 229.255630,171.187820 227.441635,154.703094 
	C225.918045,140.857346 224.475677,127.002663 222.997345,113.151939 
	C225.154312,114.350143 227.311249,115.548355 229.730713,116.965759 
z"/>
<path fill="#0151A2" opacity="1.000000" stroke="none" 
	d="
M222.640625,113.022049 
	C224.475677,127.002663 225.918045,140.857346 227.441635,154.703094 
	C229.255630,171.187820 231.143494,187.664383 232.991592,204.145370 
	C234.876572,220.955338 236.757309,237.765793 238.630417,254.577087 
	C240.430283,270.731049 242.215286,286.886719 244.012238,303.041046 
	C244.818970,310.293549 245.694809,317.539093 246.412506,324.800293 
	C246.587158,326.567261 246.261398,328.383667 246.083282,330.554688 
	C244.095764,329.612579 242.190689,328.293152 240.099213,326.247925 
	C238.869553,313.467743 238.055695,301.388214 236.735306,289.364258 
	C233.984085,264.310547 230.936310,239.289520 228.064163,214.248901 
	C225.362091,190.691101 222.760773,167.121674 219.995346,143.571411 
	C219.808853,141.983215 218.613907,140.513428 217.888000,138.988556 
	C217.888000,129.800629 217.888000,120.612694 217.888000,110.785736 
	C219.785278,111.694862 221.034592,112.293510 222.640625,113.022049 
z"/>
<path fill="#045E8F" opacity="1.000000" stroke="none" 
	d="
M261.029755,258.536469 
	C260.028442,256.472382 258.562195,254.007065 258.262634,251.407349 
	C255.702560,229.187576 253.405792,206.937668 250.925110,184.708511 
	C249.087708,168.243820 247.055420,151.800903 245.205917,135.337494 
	C244.892151,132.544540 245.063461,129.697083 245.014618,126.411598 
	C249.520248,128.438995 254.177704,130.697021 258.436371,133.550323 
	C259.865570,134.507889 261.039368,136.978973 261.045135,138.762405 
	C261.173889,178.532227 261.122742,218.302643 261.029755,258.536469 
z"/>
<path fill="#014EA7" opacity="1.000000" stroke="none" 
	d="
M217.799454,139.451447 
	C218.613907,140.513428 219.808853,141.983215 219.995346,143.571411 
	C222.760773,167.121674 225.362091,190.691101 228.064163,214.248901 
	C230.936310,239.289520 233.984085,264.310547 236.735306,289.364258 
	C238.055695,301.388214 238.869553,313.467743 239.885773,326.020020 
	C237.677368,325.257843 235.496017,323.997833 233.137817,321.989929 
	C232.140381,311.826782 231.464569,302.396088 230.466934,292.999573 
	C228.750473,276.832733 226.857193,260.684418 224.993484,244.533493 
	C223.396088,230.690781 221.787064,216.848785 220.027115,203.026337 
	C219.846664,201.609055 218.597748,200.327820 217.844604,198.983444 
	C217.800049,179.293747 217.755493,159.604034 217.799454,139.451447 
z"/>
<path fill="#004BAB" opacity="1.000000" stroke="none" 
	d="
M217.752625,199.417831 
	C218.597748,200.327820 219.846664,201.609055 220.027115,203.026337 
	C221.787064,216.848785 223.396088,230.690781 224.993484,244.533493 
	C226.857193,260.684418 228.750473,276.832733 230.466934,292.999573 
	C231.464569,302.396088 232.140381,311.826782 232.947449,321.714172 
	C228.491989,319.611908 223.904266,317.248322 219.695709,314.336700 
	C218.409714,313.446991 217.538818,311.052307 217.536514,309.345398 
	C217.487076,272.847778 217.588501,236.349991 217.752625,199.417831 
z"/>
<path fill="#0151A3" opacity="1.000000" stroke="none" 
	d="
M124.256683,263.120575 
	C122.779533,248.702087 121.587143,234.487991 120.328064,220.279816 
	C119.258980,208.215714 118.136459,196.156219 116.995178,184.098694 
	C115.447731,167.750076 113.847542,151.406479 112.292862,135.058548 
	C110.847786,119.863159 109.449219,104.663353 108.000092,89.468353 
	C106.314758,71.796555 104.608429,54.126701 102.851364,36.461960 
	C102.778656,35.730900 102.097939,35.060322 101.369766,34.181873 
	C100.975868,24.368000 100.952202,14.733287 100.821960,5.100015 
	C100.789024,2.664207 101.633064,2.140435 103.862061,4.028052 
	C105.111420,16.519608 106.168526,28.268026 107.287956,40.010502 
	C108.832840,56.216000 110.454613,72.414192 111.987877,88.620766 
	C113.443222,104.003647 114.801430,119.395699 116.249176,134.779312 
	C117.805573,151.317368 119.409111,167.850967 121.005959,184.385193 
	C122.203629,196.786179 123.549767,209.174316 124.600128,221.587631 
	C125.832474,236.151718 126.816193,250.736862 127.907745,265.312866 
	C126.776001,264.651093 125.644257,263.989319 124.256683,263.120575 
z"/>
<path fill="#035799" opacity="1.000000" stroke="none" 
	d="
M120.746750,12.782558 
	C121.116165,20.244011 120.958984,27.488720 121.497879,34.681278 
	C122.439339,47.247055 123.798096,59.781799 125.002075,72.327614 
	C126.190216,84.708382 127.418793,97.085274 128.600952,109.466599 
	C129.751724,121.519234 130.853058,133.576599 131.999680,145.629623 
	C133.570145,162.137787 135.177399,178.642456 136.741791,195.151169 
	C138.181351,210.342606 139.499695,225.546204 141.058594,240.725220 
	C141.505127,245.073166 142.601913,249.354340 143.744415,253.836472 
	C144.088287,260.481049 144.088287,266.955261 144.088287,274.199463 
	C142.630692,273.699097 141.526947,273.320160 140.166626,272.235077 
	C138.797729,259.460297 137.715576,247.388824 136.564545,235.323914 
	C135.413406,223.257767 134.147522,211.202484 133.014938,199.134659 
	C131.540878,183.428162 130.204178,167.708679 128.705582,152.004593 
	C127.207222,136.303101 125.515251,120.620010 124.031403,104.917206 
	C122.531685,89.046494 121.127411,73.166206 119.784111,57.281422 
	C118.455215,41.567039 117.254723,25.841795 115.997910,10.121315 
	C117.509789,10.928322 119.021660,11.735328 120.746750,12.782558 
z"/>
<path fill="#0252A1" opacity="1.000000" stroke="none" 
	d="
M128.088760,265.562592 
	C126.816193,250.736862 125.832474,236.151718 124.600128,221.587631 
	C123.549767,209.174316 122.203629,196.786179 121.005959,184.385193 
	C119.409111,167.850967 117.805573,151.317368 116.249176,134.779312 
	C114.801430,119.395699 113.443222,104.003647 111.987877,88.620766 
	C110.454613,72.414192 108.832840,56.216000 107.287956,40.010502 
	C106.168526,28.268026 105.111420,16.519608 104.034401,4.329240 
	C104.886909,4.078051 105.731537,4.271461 106.795654,5.146237 
	C107.679214,12.768271 108.351158,19.708197 109.005615,26.649771 
	C110.127800,38.552177 111.224091,50.457043 112.358994,62.358231 
	C113.556740,74.918335 114.810143,87.473152 115.996323,100.034325 
	C117.135895,112.101982 118.183304,124.178391 119.338470,136.244507 
	C120.857346,152.109650 122.467781,167.966003 123.990082,183.830811 
	C125.163658,196.061493 126.359200,208.291382 127.369514,220.536087 
	C128.652496,236.085571 129.758148,251.649689 130.940262,267.207489 
	C130.050095,266.742432 129.159943,266.277374 128.088760,265.562592 
z"/>
<path fill="#02569C" opacity="1.000000" stroke="none" 
	d="
M115.702530,9.983078 
	C117.254723,25.841795 118.455215,41.567039 119.784111,57.281422 
	C121.127411,73.166206 122.531685,89.046494 124.031403,104.917206 
	C125.515251,120.620010 127.207222,136.303101 128.705582,152.004593 
	C130.204178,167.708679 131.540878,183.428162 133.014938,199.134659 
	C134.147522,211.202484 135.413406,223.257767 136.564545,235.323914 
	C137.715576,247.388824 138.797729,259.460297 139.885559,271.993652 
	C138.692078,271.847900 137.523117,271.237427 136.295227,270.017700 
	C136.283432,268.107483 136.468567,266.794434 136.356262,265.507385 
	C135.260452,252.947479 134.136261,240.389923 132.977386,227.835663 
	C131.894684,216.106689 130.770798,204.381470 129.645569,192.656479 
	C128.441330,180.108093 127.188492,167.564346 126.004723,155.014053 
	C124.867455,142.956711 123.828407,130.890076 122.679367,118.833893 
	C121.152863,102.817085 119.563377,86.806290 117.997528,70.793236 
	C116.770714,58.247341 115.407494,45.712933 114.356171,33.152386 
	C113.680649,25.081657 113.460693,16.972797 113.036552,8.881029 
	C113.826752,9.202300 114.616959,9.523571 115.702530,9.983078 
z"/>
<path fill="#02539F" opacity="1.000000" stroke="none" 
	d="
M131.108795,267.460693 
	C129.758148,251.649689 128.652496,236.085571 127.369514,220.536087 
	C126.359200,208.291382 125.163658,196.061493 123.990082,183.830811 
	C122.467781,167.966003 120.857346,152.109650 119.338470,136.244507 
	C118.183304,124.178391 117.135895,112.101982 115.996323,100.034325 
	C114.810143,87.473152 113.556740,74.918335 112.358994,62.358231 
	C111.224091,50.457043 110.127800,38.552177 109.005615,26.649771 
	C108.351158,19.708197 107.679214,12.768271 107.014832,5.393736 
	C107.911674,5.397482 108.808823,5.835097 109.881523,6.974399 
	C111.158661,20.915010 112.213074,34.158081 113.376648,47.391560 
	C114.322098,58.144272 115.390717,68.886215 116.418793,79.631592 
	C117.605057,92.030197 118.825462,104.425568 119.996536,116.825600 
	C121.152107,129.061569 122.243004,141.303650 123.401962,153.539291 
	C124.576454,165.938873 125.807106,178.333115 126.999168,190.731049 
	C128.207092,203.294113 129.464584,215.852905 130.578171,228.424393 
	C131.779633,241.987900 132.839478,255.563965 133.961090,269.134552 
	C133.066513,268.661011 132.171906,268.187439 131.108795,267.460693 
z"/>
<path fill="#02559D" opacity="1.000000" stroke="none" 
	d="
M134.111176,269.388977 
	C132.839478,255.563965 131.779633,241.987900 130.578171,228.424393 
	C129.464584,215.852905 128.207092,203.294113 126.999168,190.731049 
	C125.807106,178.333115 124.576454,165.938873 123.401962,153.539291 
	C122.243004,141.303650 121.152107,129.061569 119.996536,116.825600 
	C118.825462,104.425568 117.605057,92.030197 116.418793,79.631592 
	C115.390717,68.886215 114.322098,58.144272 113.376648,47.391560 
	C112.213074,34.158081 111.158661,20.915010 110.076912,7.205073 
	C110.990341,7.257132 111.883926,7.780202 112.907036,8.592152 
	C113.460693,16.972797 113.680649,25.081657 114.356171,33.152386 
	C115.407494,45.712933 116.770714,58.247341 117.997528,70.793236 
	C119.563377,86.806290 121.152863,102.817085 122.679367,118.833893 
	C123.828407,130.890076 124.867455,142.956711 126.004723,155.014053 
	C127.188492,167.564346 128.441330,180.108093 129.645569,192.656479 
	C130.770798,204.381470 131.894684,216.106689 132.977386,227.835663 
	C134.136261,240.389923 135.260452,252.947479 136.356262,265.507385 
	C136.468567,266.794434 136.283432,268.107483 136.089020,269.762207 
	C135.381561,269.958466 134.821411,269.800934 134.111176,269.388977 
z"/>
<path fill="#045C8D" opacity="1.000000" stroke="none" 
	d="
M201.021820,304.279236 
	C201.270844,304.045197 201.686020,304.021423 202.412949,303.990723 
	C202.212463,304.152374 201.700226,304.320923 201.021820,304.279236 
z"/>
<path fill="#014390" opacity="1.000000" stroke="none" 
	d="
M161.161255,57.593742 
	C160.889374,57.871216 160.412613,57.925484 159.577393,58.007225 
	C159.798080,57.813316 160.377213,57.591930 161.161255,57.593742 
z"/>
<path fill="#5170FD" opacity="1.000000" stroke="none" 
	d="
M91.010117,214.998184 
	C91.145378,214.621658 91.470192,214.425766 91.795006,214.229874 
	C91.842682,214.501892 91.890350,214.773895 91.765671,215.285034 
	C91.462090,215.409058 91.330879,215.293945 91.010117,214.998184 
z"/>
</svg>